<svg version="1.1" id="Calque_1" xmlns="http://www.w3.org/2000/svg" xmlns:xlink="http://www.w3.org/1999/xlink" x="0px" y="0px" style="enable-background:new 0 0 841.89 595.28;" xml:space="preserve" viewBox="117.97 252.85 612.57 168.4">
<style type="text/css">
	.st0{fill:#0075BF;}
	.st1{fill:#2B2F47;}
</style>
<g>
	<path class="st0" d="M458.55,337.59H432.2v-81.26h26.35v9.75h-15.67v25.89h14.16v9.75h-14.16v26.12h15.67V337.59z"/>
	<path class="st0" d="M464.71,289.88c0-4.56,1.45-8.2,4.35-10.91c2.9-2.71,6.6-4.06,11.09-4.06s8.2,1.35,11.14,4.06   c2.94,2.71,4.41,6.35,4.41,10.91v47.71h-10.68v-47.71c0-1.55-0.45-2.8-1.34-3.77c-0.89-0.97-2.07-1.45-3.54-1.45   c-1.47,0-2.63,0.46-3.48,1.39s-1.28,2.21-1.28,3.83v47.71h-10.68V289.88z"/>
	<path class="st0" d="M503.25,289.88c0-4.56,1.47-8.2,4.41-10.91c2.94-2.71,6.66-4.06,11.14-4.06c4.49,0,8.18,1.35,11.09,4.06   c2.9,2.71,4.35,6.35,4.35,10.91v6.73h-10.68v-6.73c0-1.55-0.43-2.8-1.28-3.77c-0.85-0.97-2.01-1.45-3.48-1.45   c-1.47,0-2.65,0.48-3.54,1.45c-0.89,0.97-1.33,2.23-1.33,3.77v4.53c0,1.78,1.06,3.48,3.19,5.11c2.13,1.62,4.45,3.08,6.96,4.35   c2.51,1.28,4.84,3.23,6.96,5.86c2.13,2.63,3.19,5.69,3.19,9.17v4.76c0,4.57-1.47,8.2-4.41,10.91c-2.94,2.71-6.66,4.06-11.14,4.06   c-4.49,0-8.18-1.35-11.09-4.06c-2.9-2.71-4.35-6.34-4.35-10.91v-6.73h10.68v6.73c0,1.62,0.42,2.9,1.28,3.83   c0.85,0.93,2.01,1.39,3.48,1.39c1.47,0,2.65-0.48,3.54-1.45c0.89-0.97,1.33-2.22,1.33-3.77v-4.76c0-1.55-0.7-3-2.09-4.35   c-1.39-1.35-3.08-2.59-5.05-3.71c-1.97-1.12-3.97-2.36-5.98-3.71c-2.01-1.35-3.71-3.11-5.11-5.28c-1.39-2.17-2.09-4.64-2.09-7.43   V289.88z"/>
	<path class="st0" d="M541.78,289.88c0-4.56,1.47-8.2,4.41-10.91c2.94-2.71,6.65-4.06,11.14-4.06c4.49,0,8.18,1.35,11.09,4.06   c2.9,2.71,4.35,6.35,4.35,10.91v6.85c0,2.71-0.52,4.84-1.57,6.38c-1.04,1.55-2.81,2.86-5.28,3.95l-13.47,6.04v10.68   c0,1.55,0.45,2.81,1.33,3.77c0.89,0.97,2.07,1.45,3.54,1.45c1.47,0,2.63-0.48,3.48-1.45c0.85-0.97,1.28-2.22,1.28-3.77v-6.85h10.68   v6.85c0,4.57-1.45,8.2-4.35,10.91c-2.9,2.71-6.6,4.06-11.09,4.06c-4.49,0-8.2-1.35-11.14-4.06c-2.94-2.71-4.41-6.34-4.41-10.91   V289.88z M552.46,289.88v13l7.66-3.48c1.31-0.62,1.97-1.51,1.97-2.67v-6.85c0-1.55-0.43-2.8-1.28-3.77   c-0.85-0.97-2.01-1.45-3.48-1.45c-1.47,0-2.65,0.48-3.54,1.45C552.91,287.07,552.46,288.33,552.46,289.88z"/>
	<path class="st0" d="M581.37,265.44c-1.16-1.12-1.74-2.61-1.74-4.47c0-1.86,0.58-3.35,1.74-4.47c1.16-1.12,2.67-1.68,4.53-1.68   s3.37,0.56,4.53,1.68c1.16,1.12,1.74,2.61,1.74,4.47c0,1.86-0.58,3.35-1.74,4.47c-1.16,1.12-2.67,1.68-4.53,1.68   S582.53,266.56,581.37,265.44z M580.55,276.06h10.68v61.52h-10.68V276.06z"/>
	<path class="st0" d="M610.39,337.59h-10.68v-48.52c0-4.33,1.29-7.76,3.89-10.27c2.59-2.51,6.05-3.77,10.39-3.77   c4.33,0,7.8,1.26,10.39,3.77c2.59,2.52,3.89,5.94,3.89,10.27v7.43h-10.68v-7.43c0-2.86-1.2-4.29-3.6-4.29c-2.4,0-3.6,1.43-3.6,4.29   V337.59z"/>
	<path class="st0" d="M633.02,252.85h10.68v26.12c1.39-2.71,3.91-4.06,7.55-4.06c3.56,0,6.58,1.35,9.05,4.06   c2.48,2.71,3.71,6.35,3.71,10.91v33.9c0,4.57-1.45,8.2-4.35,10.91c-2.9,2.71-6.6,4.06-11.09,4.06c-4.49,0-8.2-1.35-11.14-4.06   c-2.94-2.71-4.41-6.34-4.41-10.91V252.85z M652.06,286.1c-0.85-0.97-2.01-1.45-3.48-1.45c-1.47,0-2.65,0.48-3.54,1.45   c-0.89,0.97-1.33,2.23-1.33,3.77v33.9c0,1.55,0.45,2.81,1.33,3.77c0.89,0.97,2.07,1.45,3.54,1.45c1.47,0,2.63-0.48,3.48-1.45   c0.85-0.97,1.28-2.22,1.28-3.77v-33.9C653.34,288.33,652.91,287.07,652.06,286.1z"/>
	<path class="st0" d="M670.52,309.96v-9.75h19.27v9.75H670.52z"/>
	<path class="st0" d="M432.36,420.07v-56.77c0-5.41,1.58-9.67,4.74-12.78c3.16-3.12,7.35-4.67,12.58-4.67   c2.66,0,5.16,0.62,7.49,1.86s4.01,2.82,5.02,4.74c0.92-2.01,2.47-3.62,4.67-4.81c2.2-1.19,4.63-1.79,7.29-1.79   c5.22,0,9.46,1.56,12.71,4.67c3.25,3.12,4.88,7.38,4.88,12.78v56.77H479.1v-56.77c0-1.83-0.48-3.28-1.44-4.33   c-0.96-1.05-2.27-1.58-3.92-1.58c-1.65,0-2.96,0.53-3.92,1.58c-0.96,1.05-1.44,2.5-1.44,4.33v56.77h-12.65v-56.77   c0-1.83-0.5-3.28-1.51-4.33c-1.01-1.05-2.38-1.58-4.12-1.58c-3.39,0-5.09,1.97-5.09,5.91v56.77H432.36z"/>
	<path class="st0" d="M510.55,379.09h-10.68v-6.73c0-4.57,1.47-8.2,4.41-10.91c2.94-2.71,6.66-4.06,11.14-4.06   c4.49,0,8.18,1.35,11.09,4.06c2.9,2.71,4.35,6.35,4.35,10.91v33.9c0,4.57-1.45,8.2-4.35,10.91c-2.9,2.71-6.6,4.06-11.09,4.06   c-4.57,0-8.3-1.33-11.2-4c-2.9-2.67-4.35-6.33-4.35-10.97v-5.69c0-6.58,3.13-11.1,9.4-13.58l10.91-4.53v-10.1   c0-1.55-0.43-2.8-1.28-3.77c-0.85-0.97-2.01-1.45-3.48-1.45c-1.47,0-2.65,0.48-3.54,1.45c-0.89,0.97-1.33,2.23-1.33,3.77V379.09z    M510.55,406.25c0,1.55,0.44,2.81,1.33,3.77c0.89,0.97,2.07,1.45,3.54,1.45c1.47,0,2.63-0.48,3.48-1.45   c0.85-0.97,1.28-2.22,1.28-3.77v-13.7l-6.15,2.67c-2.32,0.93-3.48,2.71-3.48,5.34V406.25z"/>
	<path class="st0" d="M535.39,368.29v-9.75h6.04v-13.47h10.68v13.47h8.59v9.75h-8.59v37.61c0,3.56,1.55,5.34,4.64,5.34   c1.16,0,2.48-0.31,3.95-0.93v9.52c-1.7,0.77-3.56,1.16-5.57,1.16c-4.26,0-7.6-1.26-10.04-3.77c-2.44-2.51-3.66-6.29-3.66-11.32   v-37.61H535.39z"/>
	<path class="st0" d="M565.45,420.07v-47.94c0-4.57,1.33-8.16,4-10.8c2.67-2.63,6.21-3.95,10.62-3.95c2.24,0,4.35,0.52,6.33,1.57   c1.97,1.04,3.38,2.38,4.24,4c0.77-1.7,2.09-3.06,3.95-4.06c1.86-1,3.91-1.51,6.15-1.51c4.41,0,7.99,1.32,10.74,3.95   c2.75,2.63,4.12,6.23,4.12,10.8v47.94h-10.68v-47.94c0-1.55-0.41-2.77-1.22-3.66c-0.81-0.89-1.92-1.33-3.31-1.33   c-1.39,0-2.5,0.45-3.31,1.33c-0.81,0.89-1.22,2.11-1.22,3.66v47.94h-10.68v-47.94c0-1.55-0.43-2.77-1.28-3.66   c-0.85-0.89-2.01-1.33-3.48-1.33c-2.86,0-4.29,1.67-4.29,4.99v47.94H565.45z"/>
	<path class="st0" d="M623.61,372.36c0-4.57,1.47-8.2,4.41-10.91c2.94-2.71,6.65-4.06,11.14-4.06c4.49,0,8.18,1.35,11.09,4.06   c2.9,2.71,4.35,6.35,4.35,10.91v6.85c0,2.71-0.52,4.84-1.57,6.38c-1.04,1.55-2.81,2.86-5.28,3.95l-13.47,6.04v10.68   c0,1.55,0.45,2.81,1.33,3.77c0.89,0.97,2.07,1.45,3.54,1.45c1.47,0,2.63-0.48,3.48-1.45c0.85-0.97,1.28-2.22,1.28-3.77v-6.85h10.68   v6.85c0,4.57-1.45,8.2-4.35,10.91c-2.9,2.71-6.6,4.06-11.09,4.06c-4.49,0-8.2-1.35-11.14-4.06c-2.94-2.71-4.41-6.34-4.41-10.91   V372.36z M634.29,372.36v13l7.66-3.48c1.31-0.62,1.97-1.51,1.97-2.67v-6.85c0-1.55-0.43-2.8-1.28-3.77   c-0.85-0.97-2.01-1.45-3.48-1.45c-1.47,0-2.65,0.48-3.54,1.45C634.74,369.55,634.29,370.81,634.29,372.36z"/>
	<path class="st0" d="M662.15,372.36c0-4.57,1.47-8.2,4.41-10.91c2.94-2.71,6.65-4.06,11.14-4.06c4.49,0,8.18,1.35,11.09,4.06   c2.9,2.71,4.35,6.35,4.35,10.91v6.73h-10.68v-6.73c0-1.55-0.43-2.8-1.28-3.77c-0.85-0.97-2.01-1.45-3.48-1.45   c-1.47,0-2.65,0.48-3.54,1.45c-0.89,0.97-1.33,2.23-1.33,3.77v33.9c0,1.55,0.45,2.81,1.33,3.77c0.89,0.97,2.07,1.45,3.54,1.45   c1.47,0,2.63-0.48,3.48-1.45c0.85-0.97,1.28-2.22,1.28-3.77v-6.73h10.68v6.73c0,4.57-1.45,8.2-4.35,10.91   c-2.9,2.71-6.6,4.06-11.09,4.06c-4.49,0-8.2-1.35-11.14-4.06c-2.94-2.71-4.41-6.34-4.41-10.91V372.36z"/>
	<path class="st0" d="M710.21,379.09h-10.68v-6.73c0-4.57,1.47-8.2,4.41-10.91c2.94-2.71,6.66-4.06,11.14-4.06   c4.49,0,8.18,1.35,11.09,4.06c2.9,2.71,4.35,6.35,4.35,10.91v33.9c0,4.57-1.45,8.2-4.35,10.91c-2.9,2.71-6.6,4.06-11.09,4.06   c-4.57,0-8.3-1.33-11.2-4c-2.9-2.67-4.35-6.33-4.35-10.97v-5.69c0-6.58,3.13-11.1,9.4-13.58l10.91-4.53v-10.1   c0-1.55-0.43-2.8-1.28-3.77c-0.85-0.97-2.01-1.45-3.48-1.45c-1.47,0-2.65,0.48-3.54,1.45c-0.89,0.97-1.33,2.23-1.33,3.77V379.09z    M710.21,406.25c0,1.55,0.44,2.81,1.33,3.77c0.89,0.97,2.07,1.45,3.54,1.45c1.47,0,2.63-0.48,3.48-1.45   c0.85-0.97,1.28-2.22,1.28-3.77v-13.7l-6.15,2.67c-2.32,0.93-3.48,2.71-3.48,5.34V406.25z"/>
</g>
<g>
	<path class="st1" d="M179.21,271.59c1.43-1.21,2.23-2.91,2.23-4.91c0-4.36-3.32-7.18-8.47-7.18h-10.42v26h9.72   c6.27,0,10.16-3.1,10.16-8.1C182.43,274.85,181.23,272.77,179.21,271.59 M169.3,275.18h2.62c3.77,0,3.77,1.12,3.77,2.02   c0,0.66,0,2.22-3.94,2.22h-2.45V275.18z M171.72,269.03h-2.42v-3.51h2.06c3.34,0,3.34,0.94,3.34,1.62   C174.7,267.61,174.7,269.03,171.72,269.03"/>
	<path class="st1" d="M202.29,258.91c-8.14,0-13.83,5.56-13.83,13.53c0,7.92,5.82,13.66,13.83,13.66c8.07,0,13.93-5.75,13.93-13.66   C216.22,264.47,210.49,258.91,202.29,258.91 M202.33,279.79c-3.98,0-6.75-3.02-6.75-7.35c0-4.29,2.78-7.28,6.75-7.28   c4,0,6.79,2.99,6.79,7.28C209.11,276.77,206.32,279.79,202.33,279.79"/>
	<path class="st1" d="M242.66,267.51c0-4.94-3.8-8-9.92-8h-9.43v26h6.75v-9.93h0.99l5.43,9.93h8.07l-6.58-10.94   C240.93,273.34,242.66,270.79,242.66,267.51 M230.06,265.59h2.48c2.24,0,3.38,0.64,3.38,1.89c0,0.63,0,2.12-3.74,2.12h-2.12V265.59   z"/>
	<path class="st1" d="M259.34,259.51h-9.59v26h9.59c6.85,0,14.23-4.07,14.23-13C273.57,262.92,266.22,259.51,259.34,259.51    M256.5,265.65h2.19c7.03,0,7.84,3.91,7.84,6.85c0,5.61-4.27,6.78-7.84,6.78h-2.19V265.65z"/>
	<polygon class="st1" points="287.4,275.18 298.16,275.18 298.16,269.1 287.4,269.1 287.4,265.72 298.75,265.72 298.75,259.51    280.66,259.51 280.66,285.51 299.35,285.51 299.35,279.23 287.4,279.23  "/>
	<path class="st1" d="M314.26,259.5l-11.31,26h7.51l2.12-5.36h8.42l2.18,5.36h7.59l-11.2-26H314.26z M318.53,274H315l1.79-4.63   L318.53,274z"/>
	<path class="st1" d="M349.49,275.45c0,1.98-0.69,4.34-3.97,4.34c-3.29,0-3.97-2.36-3.97-4.34v-15.95h-6.75v16.11   c0,6.17,4.41,10.49,10.72,10.49c6.31,0,10.72-4.31,10.72-10.49v-16.11h-6.74V275.45z"/>
	<polygon class="st1" points="377.74,271.8 385.71,259.51 377.81,259.51 373.77,266.3 369.67,259.51 361.51,259.51 369.66,271.72    360.72,285.51 368.85,285.51 373.63,277.49 378.62,285.51 387.02,285.51  "/>
	<path class="st1" d="M344.36,300.1h-30.47c-10.16,0-18.39,8.24-18.39,18.4v101.62h23.43v-98.23h25.8   c15.56,0,20.86,8.05,20.86,18.85c0,10.98-5.31,19.04-20.86,19.04h-16.28v21.6h15.91c31.11,0,45.02-17.21,45.02-40.63   C389.38,317.31,375.47,300.1,344.36,300.1"/>
	<rect x="117.99" y="299.8" class="st1" width="21.78" height="120.31"/>
	<path class="st0" d="M118.03,285.88h21.78l0-26.3c-12.03,0-21.78,9.75-21.78,21.78V285.88z"/>
	<path class="st1" d="M242.05,343.86l-57.92-41.84l0,0.02c-2.29-1.41-4.98-2.24-7.86-2.24c-8.29,0-15.01,6.72-15.01,15.01v105.3   h21.89v-90.71l58.91,42.6V343.86z"/>
	<path class="st0" d="M191.95,376.06l57.92,41.84l0-0.02c2.29,1.41,4.98,2.24,7.86,2.24c8.29,0,15.01-6.72,15.01-15.01V299.8h-21.89   v90.71l-58.91-42.6V376.06z"/>
</g>
</svg>